<svg version="1.1" id="Layer_1" xmlns="http://www.w3.org/2000/svg" xmlns:xlink="http://www.w3.org/1999/xlink" x="0px" y="0px"
	 width="100%" viewBox="0 0 1280 129" enable-background="new 0 0 1280 129" xml:space="preserve">
<path fill="#FFFFFF" opacity="1.000000" stroke="none" 
	d="
M243.000000,0.999996 
	C285.356659,1.000000 327.713318,1.000000 370.231934,1.382802 
	C371.074768,2.171130 371.734894,2.889548 372.439514,2.936245 
	C388.518188,4.001829 404.605804,4.934542 420.682678,6.025535 
	C428.524200,6.557667 436.370483,7.164951 444.173004,8.089244 
	C453.525513,9.197147 462.826141,10.735492 472.163177,11.983317 
	C480.552826,13.104531 489.007202,13.807367 497.351288,15.188740 
	C511.863495,17.591265 526.336853,20.249037 540.782166,23.030048 
	C558.205872,26.384451 575.653015,29.668741 592.960938,33.557877 
	C609.731262,37.326237 626.311157,41.933914 643.023315,45.971672 
	C663.194092,50.845047 683.391296,55.615559 703.624634,60.221565 
	C717.296143,63.333801 730.996155,66.376915 744.782288,68.913467 
	C757.850769,71.317970 771.046631,73.032181 784.189148,75.031952 
	C797.339111,77.032852 810.463745,79.234932 823.653381,80.929031 
	C834.187683,82.282082 844.803162,83.003136 855.382324,84.007561 
	C869.383728,85.336906 883.368469,86.889076 897.390930,87.935555 
	C910.368408,88.904068 923.385498,89.868652 936.386536,89.887184 
	C963.294922,89.925537 990.211670,89.617340 1017.110657,88.907211 
	C1036.705811,88.389900 1056.282471,87.078156 1075.858276,85.961273 
	C1083.537109,85.523163 1091.218018,84.866920 1098.850708,83.926208 
	C1110.781616,82.455765 1122.675293,80.679626 1134.579102,78.993652 
	C1144.221069,77.628021 1153.904297,76.476944 1163.480103,74.739777 
	C1176.333618,72.407990 1189.172119,69.906013 1201.888916,66.929436 
	C1220.034180,62.682217 1238.092285,58.050983 1256.128662,53.356892 
	C1264.490845,51.180546 1272.713867,48.468960 1281.000000,46.000008 
	C1281.000000,73.991684 1281.000000,101.983368 1281.000000,129.952637 
	C854.333313,129.952637 427.666656,129.952637 1.000000,129.952637 
	C1.000000,101.913528 1.000000,73.921776 1.393035,45.462006 
	C14.944045,40.995480 27.994770,36.588028 41.287136,33.101971 
	C57.908627,28.742823 74.661278,24.817059 91.484177,21.313356 
	C105.394516,18.416248 119.466461,16.259905 133.509766,14.048122 
	C143.610596,12.457267 153.774826,11.256907 163.923965,9.987784 
	C177.642639,8.272301 191.346954,6.367723 205.108047,5.088595 
	C216.884064,3.993984 228.733932,3.704479 240.541824,2.919093 
	C241.399963,2.862015 242.182373,1.666312 243.000000,0.999996 
z"/>
<path fill="#000000" opacity="1.000000" stroke="none" 
	d="
M1281.000000,45.531349 
	C1272.713867,48.468960 1264.490845,51.180546 1256.128662,53.356892 
	C1238.092285,58.050983 1220.034180,62.682217 1201.888916,66.929436 
	C1189.172119,69.906013 1176.333618,72.407990 1163.480103,74.739777 
	C1153.904297,76.476944 1144.221069,77.628021 1134.579102,78.993652 
	C1122.675293,80.679626 1110.781616,82.455765 1098.850708,83.926208 
	C1091.218018,84.866920 1083.537109,85.523163 1075.858276,85.961273 
	C1056.282471,87.078156 1036.705811,88.389900 1017.110657,88.907211 
	C990.211670,89.617340 963.294922,89.925537 936.386536,89.887184 
	C923.385498,89.868652 910.368408,88.904068 897.390930,87.935555 
	C883.368469,86.889076 869.383728,85.336906 855.382324,84.007561 
	C844.803162,83.003136 834.187683,82.282082 823.653381,80.929031 
	C810.463745,79.234932 797.339111,77.032852 784.189148,75.031952 
	C771.046631,73.032181 757.850769,71.317970 744.782288,68.913467 
	C730.996155,66.376915 717.296143,63.333801 703.624634,60.221565 
	C683.391296,55.615559 663.194092,50.845047 643.023315,45.971672 
	C626.311157,41.933914 609.731262,37.326237 592.960938,33.557877 
	C575.653015,29.668741 558.205872,26.384451 540.782166,23.030048 
	C526.336853,20.249037 511.863495,17.591265 497.351288,15.188740 
	C489.007202,13.807367 480.552826,13.104531 472.163177,11.983317 
	C462.826141,10.735492 453.525513,9.197147 444.173004,8.089244 
	C436.370483,7.164951 428.524200,6.557667 420.682678,6.025535 
	C404.605804,4.934542 388.518188,4.001829 372.439514,2.936245 
	C371.734894,2.889548 371.074768,2.171130 370.696960,1.382802 
	C674.333313,1.000000 977.666687,1.000000 1281.000000,1.000000 
	C1281.000000,15.742779 1281.000000,30.402731 1281.000000,45.531349 
z"/>
<path fill="#000000" opacity="1.000000" stroke="none" 
	d="
M242.531342,0.999996 
	C242.182373,1.666312 241.399963,2.862015 240.541824,2.919093 
	C228.733932,3.704479 216.884064,3.993984 205.108047,5.088595 
	C191.346954,6.367723 177.642639,8.272301 163.923965,9.987784 
	C153.774826,11.256907 143.610596,12.457267 133.509766,14.048122 
	C119.466461,16.259905 105.394516,18.416248 91.484177,21.313356 
	C74.661278,24.817059 57.908627,28.742823 41.287136,33.101971 
	C27.994770,36.588028 14.944045,40.995480 1.393035,44.996994 
	C1.000000,30.355797 1.000000,15.711592 1.000000,1.000000 
	C81.354218,1.000000 161.708450,1.000000 242.531342,0.999996 
z"/>
</svg>